<svg xmlns="http://www.w3.org/2000/svg" xmlns:xlink="http://www.w3.org/1999/xlink" width="500" zoomAndPan="magnify" viewBox="0 0 375 374.999991" height="500" preserveAspectRatio="xMidYMid meet" version="1.0"><defs><g/><clipPath id="143a7e78a0"><path d="M 0 138.277344 L 375 138.277344 L 375 208.027344 L 0 208.027344 Z M 0 138.277344 " clip-rule="nonzero"/></clipPath></defs><g clip-path="url(#143a7e78a0)"><path fill="#000000" d="M 0.0117188 138.277344 L 374.988281 138.277344 L 374.988281 208.027344 L 0.0117188 208.027344 L 0.0117188 138.277344 " fill-opacity="1" fill-rule="nonzero"/></g><g fill="#ffffff" fill-opacity="1"><g transform="translate(53.103199, 188.283165)"><g><path d="M 10.734375 -14.671875 L 6.859375 -12.609375 L 6.859375 0 L 1.828125 0 L 1.828125 -31.765625 L 6.859375 -31.765625 L 6.859375 -18.234375 L 10.734375 -20.296875 L 10.734375 -31.765625 L 15.765625 -31.765625 L 15.765625 0 L 10.734375 0 Z M 10.734375 -14.671875 "/></g></g></g><g fill="#ffffff" fill-opacity="1"><g transform="translate(88.983612, 188.283165)"><g><path d="M 1.828125 0 L 1.828125 -31.765625 L 6.859375 -31.765625 L 6.859375 0 Z M 1.828125 0 "/></g></g></g><g fill="#ffffff" fill-opacity="1"><g transform="translate(115.951059, 188.283165)"><g><path d="M 13.25 -29.4375 C 13.4375 -29.832031 13.695312 -30.195312 14.03125 -30.53125 C 14.820312 -31.351562 15.78125 -31.765625 16.90625 -31.765625 L 20.5625 -31.765625 C 21.6875 -31.765625 22.65625 -31.335938 23.46875 -30.484375 C 24.28125 -29.628906 24.6875 -28.609375 24.6875 -27.421875 L 24.6875 0 L 19.65625 0 L 19.65625 -26.96875 L 15.765625 -26.96875 L 15.765625 0 L 10.734375 0 L 10.734375 -26.96875 L 6.859375 -26.96875 L 6.859375 0 L 1.828125 0 L 1.828125 -27.421875 C 1.828125 -28.640625 2.226562 -29.664062 3.03125 -30.5 C 3.84375 -31.34375 4.8125 -31.765625 5.9375 -31.765625 L 9.59375 -31.765625 C 10.71875 -31.765625 11.691406 -31.335938 12.515625 -30.484375 C 12.828125 -30.148438 13.070312 -29.800781 13.25 -29.4375 Z M 13.25 -29.4375 "/></g></g></g><g fill="#ffffff" fill-opacity="1"><g transform="translate(160.744415, 188.283165)"><g><path d="M 1.828125 0 L 1.828125 -27.421875 C 1.828125 -28.640625 2.226562 -29.664062 3.03125 -30.5 C 3.84375 -31.34375 4.8125 -31.765625 5.9375 -31.765625 L 11.65625 -31.765625 C 12.78125 -31.765625 13.742188 -31.34375 14.546875 -30.5 C 15.359375 -29.664062 15.765625 -28.640625 15.765625 -27.421875 L 15.765625 0 L 10.734375 0 L 10.734375 -13.484375 L 6.859375 -11.421875 L 6.859375 0 Z M 6.859375 -17.046875 L 10.734375 -19.109375 L 10.734375 -26.96875 L 6.859375 -26.96875 Z M 6.859375 -17.046875 "/></g></g></g><g fill="#ffffff" fill-opacity="1"><g transform="translate(196.624824, 188.283165)"><g><path d="M 6.859375 0 L 1.828125 0 L 1.828125 -31.765625 L 6.859375 -31.765625 L 6.859375 -29.4375 C 7.035156 -29.832031 7.28125 -30.195312 7.59375 -30.53125 C 8.414062 -31.351562 9.390625 -31.765625 10.515625 -31.765625 L 11.65625 -31.765625 C 12.78125 -31.765625 13.742188 -31.34375 14.546875 -30.5 C 15.359375 -29.664062 15.765625 -28.640625 15.765625 -27.421875 L 15.765625 0 L 10.734375 0 L 10.734375 -26.96875 L 6.859375 -26.96875 Z M 6.859375 0 "/></g></g></g><g fill="#ffffff" fill-opacity="1"><g transform="translate(232.505234, 188.283165)"><g><path d="M 1.828125 -27.421875 C 1.828125 -28.671875 2.226562 -29.707031 3.03125 -30.53125 C 3.84375 -31.351562 4.8125 -31.765625 5.9375 -31.765625 L 11.65625 -31.765625 C 12.78125 -31.765625 13.742188 -31.34375 14.546875 -30.5 C 15.359375 -29.664062 15.765625 -28.640625 15.765625 -27.421875 L 15.765625 -26.046875 L 10.734375 -23.53125 L 10.734375 -26.96875 L 6.859375 -26.96875 L 6.859375 -18.515625 L 15.765625 -23.078125 L 15.765625 -4.34375 C 15.765625 -3.15625 15.359375 -2.132812 14.546875 -1.28125 C 13.742188 -0.425781 12.78125 0 11.65625 0 L 5.9375 0 C 4.8125 0 3.84375 -0.414062 3.03125 -1.25 C 2.226562 -2.09375 1.828125 -3.125 1.828125 -4.34375 L 1.828125 -7.3125 L 6.859375 -9.828125 L 6.859375 -4.796875 L 10.734375 -4.796875 L 10.734375 -14.859375 L 1.828125 -10.28125 Z M 1.828125 -27.421875 "/></g></g></g><g fill="#ffffff" fill-opacity="1"><g transform="translate(268.385643, 188.283165)"><g><path d="M 10.734375 -14.671875 L 6.859375 -12.609375 L 6.859375 0 L 1.828125 0 L 1.828125 -31.765625 L 6.859375 -31.765625 L 6.859375 -18.234375 L 10.734375 -20.296875 L 10.734375 -31.765625 L 15.765625 -31.765625 L 15.765625 0 L 10.734375 0 Z M 10.734375 -14.671875 "/></g></g></g><g fill="#ffffff" fill-opacity="1"><g transform="translate(304.266053, 188.283165)"><g><path d="M 15.765625 -31.765625 L 15.765625 -4.34375 C 15.765625 -3.125 15.359375 -2.09375 14.546875 -1.25 C 13.742188 -0.414062 12.78125 0 11.65625 0 L 5.9375 0 C 4.8125 0 3.84375 -0.425781 3.03125 -1.28125 C 2.226562 -2.132812 1.828125 -3.15625 1.828125 -4.34375 L 1.828125 -31.765625 L 6.859375 -31.765625 L 6.859375 -4.796875 L 10.734375 -4.796875 L 10.734375 -31.765625 Z M 15.765625 -31.765625 "/></g></g></g></svg>